<svg width="101" height="39" viewBox="0 0 101 39" fill="none" xmlns="http://www.w3.org/2000/svg">
<path d="M11.0337 4.90909C10.9371 3.9375 10.5082 3.16477 9.7468 2.59091C8.98544 2.01705 8.02805 1.73011 6.87464 1.73011C6.06214 1.73011 5.34624 1.86932 4.72692 2.14773C4.11328 2.42614 3.63033 2.8125 3.27805 3.30682C2.93146 3.79545 2.75817 4.35227 2.75817 4.97727C2.75817 5.4375 2.8576 5.84091 3.05646 6.1875C3.25533 6.53409 3.52237 6.83239 3.8576 7.08239C4.19851 7.3267 4.57351 7.53693 4.9826 7.71307C5.39737 7.8892 5.81499 8.03693 6.23544 8.15625L8.07635 8.68466C8.63317 8.83807 9.18999 9.03409 9.7468 9.27273C10.3036 9.51136 10.8121 9.8125 11.2724 10.1761C11.7383 10.5341 12.1104 10.9744 12.3889 11.4972C12.6729 12.0142 12.815 12.6364 12.815 13.3636C12.815 14.2955 12.5735 15.1335 12.0906 15.8778C11.6076 16.6222 10.9144 17.2131 10.011 17.6506C9.1076 18.0824 8.02521 18.2983 6.76385 18.2983C5.57635 18.2983 4.5451 18.1023 3.6701 17.7102C2.7951 17.3125 2.1076 16.7642 1.6076 16.0653C1.1076 15.3665 0.826349 14.5568 0.763849 13.6364H2.40021C2.45703 14.3239 2.6843 14.9062 3.08203 15.3835C3.47976 15.8608 3.9968 16.2244 4.63317 16.4744C5.26953 16.7187 5.97976 16.8409 6.76385 16.8409C7.63317 16.8409 8.4059 16.696 9.08203 16.4062C9.76385 16.1108 10.2979 15.7017 10.6843 15.179C11.0764 14.6506 11.2724 14.0369 11.2724 13.3381C11.2724 12.7472 11.119 12.2528 10.8121 11.8551C10.5053 11.4517 10.0763 11.1136 9.52521 10.8409C8.97976 10.5682 8.34624 10.3267 7.62465 10.1165L5.53658 9.50284C4.16726 9.09375 3.10476 8.52841 2.34908 7.80682C1.59339 7.08523 1.21555 6.16477 1.21555 5.04545C1.21555 4.10795 1.46555 3.28409 1.96555 2.57386C2.47124 1.85795 3.15305 1.30114 4.01101 0.903408C4.87464 0.499999 5.84339 0.298295 6.91726 0.298295C8.00249 0.298295 8.96271 0.497159 9.79794 0.894886C10.6332 1.29261 11.2951 1.84091 11.7837 2.53977C12.2781 3.23295 12.5423 4.02273 12.5764 4.90909H11.0337ZM19.9911 18.2983C19.2013 18.2983 18.4798 18.1449 17.8263 17.8381C17.1729 17.5256 16.6531 17.0767 16.2667 16.4915C15.8803 15.9006 15.6871 15.1847 15.6871 14.3438C15.6871 13.696 15.8093 13.1506 16.0536 12.7074C16.2979 12.2642 16.6445 11.9006 17.0934 11.6165C17.5423 11.3324 18.0735 11.108 18.6871 10.9432C19.3008 10.7784 19.9769 10.6506 20.7156 10.5597C21.4485 10.4687 22.0678 10.3892 22.5735 10.321C23.0849 10.2528 23.4741 10.1449 23.7411 9.99716C24.0082 9.84943 24.1417 9.6108 24.1417 9.28125V8.97443C24.1417 8.08239 23.8746 7.38068 23.3406 6.86932C22.8121 6.35227 22.0508 6.09375 21.0565 6.09375C20.1133 6.09375 19.3434 6.30114 18.7468 6.71591C18.1559 7.13068 17.7411 7.61932 17.5025 8.18182L16.0621 7.66193C16.3576 6.94602 16.7667 6.375 17.2894 5.94886C17.8121 5.51705 18.3974 5.20739 19.0451 5.01989C19.6928 4.8267 20.3491 4.73011 21.0138 4.73011C21.5138 4.73011 22.0337 4.79545 22.5735 4.92614C23.119 5.05682 23.6246 5.28409 24.0906 5.60795C24.5565 5.92614 24.9343 6.37216 25.2241 6.94602C25.5138 7.5142 25.6587 8.2358 25.6587 9.1108V18H24.1417V15.929H24.0479C23.8661 16.3153 23.5962 16.6903 23.2383 17.054C22.8803 17.4176 22.4315 17.7159 21.8917 17.9489C21.3519 18.1818 20.7184 18.2983 19.9911 18.2983ZM20.1957 16.9091C21.0025 16.9091 21.7013 16.7301 22.2923 16.3722C22.8832 16.0142 23.3377 15.5398 23.6559 14.9489C23.9798 14.3523 24.1417 13.696 24.1417 12.9801V11.0881C24.0281 11.196 23.8377 11.2926 23.5707 11.3778C23.3093 11.4631 23.0053 11.5398 22.6587 11.608C22.3178 11.6705 21.9769 11.7244 21.636 11.7699C21.2951 11.8153 20.9883 11.8551 20.7156 11.8892C19.9769 11.9801 19.3462 12.1222 18.8235 12.3153C18.3008 12.5085 17.9002 12.7756 17.6218 13.1165C17.3434 13.4517 17.2042 13.8835 17.2042 14.4119C17.2042 15.2074 17.4883 15.8239 18.0565 16.2614C18.6246 16.6932 19.3377 16.9091 20.1957 16.9091ZM29.6942 18V4.90909H31.1687V6.92045H31.305C31.5664 6.24432 32.0011 5.71307 32.609 5.3267C33.2227 4.93466 33.9585 4.73864 34.8164 4.73864C35.7198 4.73864 36.4613 4.9517 37.0408 5.37784C37.6261 5.7983 38.0636 6.37784 38.3533 7.11648H38.4641C38.7596 6.3892 39.2397 5.8125 39.9045 5.38636C40.5749 4.95455 41.3874 4.73864 42.342 4.73864C43.5579 4.73864 44.5181 5.12216 45.2227 5.8892C45.9272 6.65057 46.2795 7.7642 46.2795 9.23011V18H44.7624V9.23011C44.7624 8.19602 44.4982 7.42045 43.9698 6.90341C43.4414 6.38636 42.7454 6.12784 41.8817 6.12784C40.8817 6.12784 40.1119 6.43466 39.5721 7.0483C39.0323 7.66193 38.7624 8.44034 38.7624 9.38352V18H37.2113V9.09375C37.2113 8.20739 36.9641 7.49148 36.4698 6.94602C35.9755 6.40057 35.2795 6.12784 34.3817 6.12784C33.7795 6.12784 33.2369 6.27557 32.7539 6.57102C32.2766 6.86648 31.8988 7.27841 31.6204 7.80682C31.3477 8.32955 31.2113 8.93182 31.2113 9.61364V18H29.6942ZM59.0913 7.78125L57.7021 8.1733C57.5657 7.78125 57.3725 7.42614 57.1225 7.10795C56.8725 6.78977 56.5458 6.53693 56.1424 6.34943C55.7447 6.16193 55.2504 6.06818 54.6594 6.06818C53.7731 6.06818 53.0458 6.27841 52.4776 6.69886C51.9094 7.11932 51.6254 7.66193 51.6254 8.3267C51.6254 8.8892 51.8185 9.34659 52.2049 9.69886C52.5969 10.0455 53.1992 10.321 54.0117 10.5256L55.989 11.0114C57.0856 11.2784 57.9066 11.7017 58.4521 12.2812C59.0032 12.8608 59.2788 13.5881 59.2788 14.4631C59.2788 15.2017 59.0742 15.858 58.6651 16.4318C58.256 17.0057 57.685 17.4574 56.9521 17.7869C56.2248 18.1108 55.381 18.2727 54.4208 18.2727C53.1424 18.2727 52.0884 17.9858 51.2589 17.4119C50.4293 16.8324 49.8981 15.9972 49.6651 14.9062L51.1225 14.5483C51.31 15.3267 51.6765 15.9148 52.2219 16.3125C52.7731 16.7102 53.4975 16.9091 54.3952 16.9091C55.4009 16.9091 56.2049 16.6847 56.8072 16.2358C57.4094 15.7812 57.7106 15.2131 57.7106 14.5312C57.7106 14.0028 57.5344 13.5597 57.1822 13.2017C56.8299 12.8381 56.2958 12.571 55.5799 12.4006L53.4407 11.8892C52.3043 11.6165 51.4634 11.1847 50.918 10.5938C50.3725 10.0028 50.0998 9.26989 50.0998 8.39489C50.0998 7.6733 50.2958 7.03977 50.6879 6.49432C51.0799 5.94318 51.6197 5.51136 52.3072 5.19886C52.9947 4.88636 53.7788 4.73011 54.6594 4.73011C55.8583 4.73011 56.8157 5.00284 57.5316 5.54829C58.2532 6.08807 58.7731 6.83239 59.0913 7.78125ZM70.9187 12.9972V4.90909H72.4357V18H70.9187V15.8267H70.7994C70.4925 16.4972 70.0067 17.0568 69.342 17.5057C68.6772 17.9489 67.8647 18.1705 66.9045 18.1705C66.0692 18.1705 65.3278 17.9886 64.68 17.625C64.0323 17.2557 63.5238 16.7159 63.1545 16.0057C62.7852 15.2955 62.6005 14.4233 62.6005 13.3892V4.90909H64.1175V13.2955C64.1175 14.3182 64.4187 15.142 65.021 15.767C65.6232 16.3864 66.396 16.696 67.3391 16.696C67.93 16.696 68.4982 16.554 69.0437 16.2699C69.5891 15.9858 70.038 15.571 70.3903 15.0256C70.7425 14.4744 70.9187 13.7983 70.9187 12.9972ZM77.9691 9.81818V18H76.4521V4.90909H77.9265V6.96307H78.0629C78.3697 6.29261 78.8469 5.75568 79.4947 5.35227C80.1481 4.94318 80.9549 4.73864 81.9151 4.73864C82.7958 4.73864 83.5685 4.9233 84.2333 5.29261C84.9038 5.65625 85.4237 6.19318 85.793 6.90341C86.168 7.61364 86.3555 8.4858 86.3555 9.51989V18H84.8384V9.61364C84.8384 8.53977 84.5373 7.69034 83.935 7.06534C83.3384 6.44034 82.5373 6.12784 81.5316 6.12784C80.8441 6.12784 80.2333 6.27557 79.6992 6.57102C79.1651 6.86648 78.7418 7.29261 78.4293 7.84943C78.1225 8.40057 77.9691 9.05682 77.9691 9.81818ZM95.3448 23.1818C94.4528 23.1818 93.6715 23.0653 93.0011 22.8324C92.3306 22.6051 91.7653 22.2926 91.305 21.8949C90.8448 21.4972 90.4869 21.0511 90.2312 20.5568L91.4755 19.7386C91.663 20.0682 91.913 20.392 92.2255 20.7102C92.5437 21.0284 92.9556 21.2926 93.4613 21.5028C93.9727 21.7131 94.6005 21.8182 95.3448 21.8182C96.5039 21.8182 97.4386 21.5284 98.1488 20.9489C98.8647 20.3693 99.2227 19.4687 99.2227 18.2472V15.2983H99.0863C98.9102 15.696 98.6573 16.0937 98.3278 16.4915C97.9982 16.8835 97.5664 17.2102 97.0323 17.4716C96.5039 17.733 95.8477 17.8636 95.0636 17.8636C94.0181 17.8636 93.0891 17.6051 92.2766 17.0881C91.4698 16.571 90.8335 15.8324 90.3675 14.8722C89.9073 13.9062 89.6772 12.7557 89.6772 11.4205C89.6772 10.0966 89.9016 8.93182 90.3505 7.92614C90.805 6.92045 91.4386 6.13636 92.2511 5.57386C93.0636 5.01136 94.0096 4.73011 95.0891 4.73011C95.8903 4.73011 96.555 4.87216 97.0835 5.15625C97.6119 5.43466 98.0352 5.78125 98.3533 6.19602C98.6772 6.6108 98.93 7.0142 99.1119 7.40625H99.2653V4.90909H100.748V18.3409C100.748 19.4489 100.512 20.3608 100.041 21.0767C99.5692 21.7926 98.9272 22.321 98.1147 22.6619C97.3022 23.0085 96.3789 23.1818 95.3448 23.1818ZM95.2425 16.4744C96.0835 16.4744 96.8022 16.2727 97.3988 15.8693C97.9954 15.4602 98.4528 14.875 98.771 14.1136C99.0891 13.3523 99.2482 12.446 99.2482 11.3949C99.2482 10.3722 99.092 9.46591 98.7795 8.67614C98.467 7.88068 98.0124 7.25568 97.4158 6.80114C96.8249 6.34091 96.1005 6.1108 95.2425 6.1108C94.3675 6.1108 93.6289 6.34659 93.0266 6.81818C92.4244 7.28977 91.9698 7.92614 91.663 8.72727C91.3562 9.52273 91.2028 10.4119 91.2028 11.3949C91.2028 12.3949 91.359 13.2784 91.6715 14.0455C91.984 14.8068 92.4414 15.4034 93.0437 15.8352C93.646 16.2614 94.3789 16.4744 95.2425 16.4744ZM14.4822 20.5455H16.3232L22.6555 35.75H22.8089L29.1413 20.5455H30.9822V38H29.4822V23.9119H29.3459L23.4567 38H22.0078L16.1186 23.9119H15.9822V38H14.4822V20.5455ZM38.9638 38.2983C38.174 38.2983 37.4524 38.1449 36.799 37.8381C36.1456 37.5256 35.6257 37.0767 35.2393 36.4915C34.853 35.9006 34.6598 35.1847 34.6598 34.3438C34.6598 33.696 34.782 33.1506 35.0263 32.7074C35.2706 32.2642 35.6172 31.9006 36.0661 31.6165C36.5149 31.3324 37.0462 31.108 37.6598 30.9432C38.2734 30.7784 38.9496 30.6506 39.6882 30.5597C40.4212 30.4687 41.0405 30.3892 41.5462 30.321C42.0575 30.2528 42.4467 30.1449 42.7138 29.9972C42.9808 29.8494 43.1143 29.6108 43.1143 29.2812V28.9744C43.1143 28.0824 42.8473 27.3807 42.3132 26.8693C41.7848 26.3523 41.0234 26.0938 40.0291 26.0938C39.0859 26.0938 38.3161 26.3011 37.7195 26.7159C37.1286 27.1307 36.7138 27.6193 36.4751 28.1818L35.0348 27.6619C35.3303 26.946 35.7393 26.375 36.2621 25.9489C36.7848 25.517 37.37 25.2074 38.0178 25.0199C38.6655 24.8267 39.3217 24.7301 39.9865 24.7301C40.4865 24.7301 41.0064 24.7955 41.5462 24.9261C42.0916 25.0568 42.5973 25.2841 43.0632 25.608C43.5291 25.9261 43.907 26.3722 44.1967 26.946C44.4865 27.5142 44.6314 28.2358 44.6314 29.1108V38H43.1143V35.929H43.0206C42.8388 36.3153 42.5689 36.6903 42.2109 37.054C41.853 37.4176 41.4041 37.7159 40.8643 37.9489C40.3246 38.1818 39.6911 38.2983 38.9638 38.2983ZM39.1683 36.9091C39.9751 36.9091 40.674 36.7301 41.2649 36.3722C41.8558 36.0142 42.3104 35.5398 42.6286 34.9489C42.9524 34.3523 43.1143 33.696 43.1143 32.9801V31.0881C43.0007 31.196 42.8104 31.2926 42.5433 31.3778C42.282 31.4631 41.978 31.5398 41.6314 31.608C41.2905 31.6705 40.9496 31.7244 40.6087 31.7699C40.2678 31.8153 39.9609 31.8551 39.6882 31.8892C38.9496 31.9801 38.3189 32.1222 37.7962 32.3153C37.2734 32.5085 36.8729 32.7756 36.5945 33.1165C36.3161 33.4517 36.1768 33.8835 36.1768 34.4119C36.1768 35.2074 36.4609 35.8239 37.0291 36.2614C37.5973 36.6932 38.3104 36.9091 39.1683 36.9091ZM48.6669 38V24.9091H50.1413V26.9205H50.2521C50.5135 26.2614 50.968 25.7301 51.6158 25.3267C52.2692 24.9176 53.0078 24.7131 53.8317 24.7131C53.9567 24.7131 54.0959 24.7159 54.2493 24.7216C54.4027 24.7273 54.5305 24.733 54.6328 24.7386V26.2812C54.5646 26.2699 54.4453 26.2528 54.2749 26.2301C54.1044 26.2074 53.9197 26.196 53.7209 26.196C53.0391 26.196 52.4311 26.3409 51.897 26.6307C51.3686 26.9148 50.951 27.3097 50.6442 27.8153C50.3374 28.321 50.1839 28.8977 50.1839 29.5455V38H48.6669ZM58.6023 33.0568L58.5852 31.071H58.9261L65.0625 24.9091H66.9801L60.9205 30.9773L60.7841 31.0028L58.6023 33.0568ZM57.2216 38V20.5455H58.7386V38H57.2216ZM65.3778 38L60.0597 31.2756L61.1506 30.2273L67.321 38H65.3778ZM74.5845 38.2727C73.3629 38.2727 72.3061 37.9886 71.4141 37.4205C70.522 36.8466 69.8317 36.054 69.343 35.0426C68.8601 34.0256 68.6186 32.8551 68.6186 31.5312C68.6186 30.2131 68.8601 29.0426 69.343 28.0199C69.8317 26.9915 70.505 26.1875 71.3629 25.608C72.2266 25.0227 73.2237 24.7301 74.3544 24.7301C75.0646 24.7301 75.7493 24.8608 76.4084 25.1222C77.0675 25.3778 77.6584 25.7727 78.1811 26.3068C78.7095 26.8352 79.1271 27.5028 79.4339 28.3097C79.7408 29.1108 79.8942 30.0597 79.8942 31.1562V31.9062H69.6669V30.5682H78.343C78.343 29.7273 78.1726 28.9716 77.8317 28.3011C77.4964 27.625 77.0277 27.0909 76.4254 26.6989C75.8288 26.3068 75.1385 26.1108 74.3544 26.1108C73.5249 26.1108 72.7947 26.3324 72.1641 26.7756C71.5334 27.2187 71.0391 27.804 70.6811 28.5312C70.3288 29.2585 70.1499 30.054 70.1442 30.9176V31.7188C70.1442 32.7585 70.3232 33.6676 70.6811 34.446C71.0447 35.2187 71.5589 35.8182 72.2237 36.2443C72.8885 36.6705 73.6754 36.8835 74.5845 36.8835C75.2038 36.8835 75.7464 36.7869 76.2124 36.5938C76.6839 36.4006 77.0788 36.142 77.397 35.8182C77.7209 35.4886 77.9652 35.1278 78.13 34.7358L79.5703 35.2045C79.3714 35.7557 79.0447 36.2642 78.5902 36.7301C78.1413 37.196 77.5788 37.571 76.9027 37.8551C76.2322 38.1335 75.4595 38.2727 74.5845 38.2727ZM88.3935 24.9091V26.2301H82.1463V24.9091H88.3935ZM84.098 21.7727H85.6236V34.5824C85.6236 35.1278 85.7173 35.5568 85.9048 35.8693C86.0923 36.1761 86.3366 36.3949 86.6378 36.5256C86.9389 36.6506 87.2599 36.7131 87.6009 36.7131C87.7997 36.7131 87.9702 36.7017 88.1122 36.679C88.2543 36.6506 88.3793 36.6222 88.4872 36.5938L88.8111 37.9659C88.6634 38.0227 88.4815 38.0739 88.2656 38.1193C88.0497 38.1705 87.7827 38.196 87.4645 38.196C86.9077 38.196 86.3707 38.0739 85.8537 37.8295C85.3423 37.5852 84.9219 37.2216 84.5923 36.7386C84.2628 36.2557 84.098 35.6562 84.098 34.9403V21.7727Z" fill="url(#paint0_linear_1911_1524)"/>
<defs>
<linearGradient id="paint0_linear_1911_1524" x1="51" y1="-1" x2="51" y2="39" gradientUnits="userSpaceOnUse">
<stop stop-color="#1456C5"/>
<stop offset="1" stop-color="#002D79"/>
</linearGradient>
</defs>
</svg>
