<?xml version="1.0" encoding="utf-8"?><svg viewBox="0 0 21 21" xmlns="http://www.w3.org/2000/svg" xmlns:xlink="http://www.w3.org/1999/xlink"><style>:root>svg{display:none}:root>svg:target{display:block}</style><svg viewBox="0 0 20 21" id="cart" xmlns="http://www.w3.org/2000/svg"><path d="M3.827 18.634l.547-.273-.547.273zm12.347 0l.546.274-.546-.274zM1.694 8.37h16.614V7.148H1.693V8.37zm16.251-.363v.537h1.222v-.537h-1.222zm-1.973 10.141H4.03v1.222h11.943v-1.222zM2.056 8.544v-.537H.834v.537h1.222zm2.318 9.817a21.951 21.951 0 01-2.318-9.817H.834c0 3.598.837 7.146 2.447 10.364l1.093-.547zm-.345-.213c.147 0 .28.083.345.213l-1.093.547a.837.837 0 00.748.462v-1.222zm11.599.213a.385.385 0 01.344-.213v1.222a.835.835 0 00.748-.462l-1.092-.547zm2.317-9.817a21.97 21.97 0 01-2.317 9.817l1.092.547a23.173 23.173 0 002.447-10.364h-1.222zm.363-.174a.363.363 0 01-.363-.363h1.222a.86.86 0 00-.859-.859V8.37zM1.693 7.148a.86.86 0 00-.859.86h1.222a.363.363 0 01-.363.362V7.148zm3.943.925l3.667-6.11-1.05-.629-3.667 6.111 1.049.628h.001zm5.062-6.11l3.667 6.11 1.049-.628-3.667-6.111-1.049.628z"/></svg><svg viewBox="0 0 21 20" id="confirm-icon" xmlns="http://www.w3.org/2000/svg"><path d="M16.75 2.5H4.25A1.25 1.25 0 003 3.75v12.5a1.25 1.25 0 001.25 1.25h12.5A1.25 1.25 0 0018 16.25V3.75a1.25 1.25 0 00-1.25-1.25zM4.25 16.25V3.75h12.5v12.5H4.25z"/><path d="M9.25 13.438l-3.125-3.1.994-.963 2.131 2.094 4.631-4.594.994.987-5.625 5.575z"/></svg></svg>