<svg width="20" height="21" viewBox="0 0 20 21" fill="none" xmlns="http://www.w3.org/2000/svg">
<path d="M3.82721 18.6345L4.37354 18.3608L3.82721 18.6345ZM16.1741 18.6345L16.7204 18.9083L16.1741 18.6345ZM1.69321 8.37032H18.3081V7.1481H1.69321V8.37032ZM17.9451 8.00732V8.54387H19.1673V8.00732H17.9451ZM15.9724 18.1481H4.02887V19.3703H15.9724V18.1481ZM2.05621 8.54387V8.00732H0.833984V8.54387H2.05621ZM4.37354 18.3608C2.84955 15.3127 2.05616 11.9517 2.05621 8.54387H0.833984C0.833984 12.1421 1.67121 15.6902 3.28087 18.9083L4.37354 18.3608ZM4.02887 18.1481C4.17554 18.1481 4.30876 18.2312 4.37354 18.3608L3.28087 18.9083C3.35046 19.0471 3.45726 19.1638 3.58935 19.2454C3.72144 19.327 3.87362 19.3702 4.02887 19.3703V18.1481ZM15.6278 18.3608C15.6598 18.2968 15.709 18.243 15.7699 18.2054C15.8308 18.1679 15.9009 18.148 15.9724 18.1481V19.3703C16.2902 19.3703 16.5786 19.1919 16.7204 18.9083L15.6278 18.3608ZM17.9451 8.54387C17.9451 11.9514 17.1507 15.3125 15.6278 18.3608L16.7204 18.9083C18.3296 15.6903 19.1673 12.1418 19.1673 8.54387H17.9451ZM18.3081 8.37032C18.2118 8.37032 18.1195 8.33207 18.0514 8.264C17.9833 8.19592 17.9451 8.10359 17.9451 8.00732H19.1673C19.1673 7.77944 19.0768 7.56089 18.9157 7.39976C18.7545 7.23862 18.536 7.1481 18.3081 7.1481V8.37032ZM1.69321 7.1481C1.46533 7.1481 1.24678 7.23862 1.08564 7.39976C0.924509 7.56089 0.833984 7.77944 0.833984 8.00732H2.05621C2.05621 8.10359 2.01796 8.19592 1.94989 8.264C1.88181 8.33207 1.78948 8.37032 1.69321 8.37032V7.1481ZM5.6361 8.07332L9.30276 1.96221L8.25287 1.33398L4.58621 7.4451L5.63487 8.07332H5.6361ZM10.6985 1.96221L14.3652 8.07332L15.4139 7.4451L11.7472 1.33398L10.6985 1.96221Z" fill="white"/>
</svg>
